<svg width="200" height="200" viewBox="0 0 200 200" fill="none" xmlns="http://www.w3.org/2000/svg">
<g clip-path="url(#clip0_97_22)">
<path d="M158.583 29.6667C144.667 18.0833 127.417 10.5 108.333 8.75V25.5C122.75 27.0833 135.917 32.8333 146.75 41.5L158.583 29.6667ZM91.6667 25.5V8.75C72.5833 10.4167 55.3333 18.0833 41.4167 29.6667L53.25 41.5C64.2729 32.621 77.5999 27.0705 91.6667 25.5ZM41.5 53.25L29.6667 41.4167C18.0833 55.3333 10.5 72.5833 8.75 91.6667H25.5C27.0833 77.25 32.8333 64.0833 41.5 53.25ZM174.5 91.6667H191.25C189.5 72.5833 181.917 55.3333 170.333 41.4167L158.5 53.25C167.379 64.2729 172.93 77.5999 174.5 91.6667ZM58.3333 100L87 113L100 141.667L113 113L141.667 100L113 87L100 58.3333L87 87L58.3333 100Z" fill="white"/>
<path d="M99.9999 175C87.6932 174.997 75.578 171.953 64.7321 166.137C53.8862 160.322 44.6459 151.916 37.8333 141.667H58.3333V125H8.33325V175H24.9999V152.5C41.5833 176.167 68.9166 191.667 99.9999 191.667C140.583 191.667 175 165.25 187 128.667L170.667 124.917C160.417 154 132.667 175 99.9999 175Z" fill="white"/>
</g>
<defs>
<clipPath id="clip0_97_22">
<rect width="200" height="200" fill="white"/>
</clipPath>
</defs>
</svg>
