<svg width="200" height="200" viewBox="0 0 200 200" fill="none" xmlns="http://www.w3.org/2000/svg">
<g clip-path="url(#clip0_86_14)">
<path d="M158.333 25H41.6667C32.5 25 25 32.5 25 41.6667V158.333C25 167.5 32.5 175 41.6667 175H158.333C167.5 175 175 167.5 175 158.333V41.6667C175 32.5 167.5 25 158.333 25ZM158.333 158.333H41.6667V41.6667H158.333V158.333Z" fill="white"/>
<path d="M52.0833 64.3333H93.75V76.8333H52.0833V64.3333ZM108.333 131.25H150V143.75H108.333V131.25ZM108.333 110.417H150V122.917H108.333V110.417ZM66.6667 150H79.1667V133.333H95.8333V120.833H79.1667V104.167H66.6667V120.833H50V133.333H66.6667V150ZM117.417 91.25L129.167 79.5L140.917 91.25L149.75 82.4167L138 70.5833L149.75 58.8333L140.917 50L129.167 61.75L117.417 50L108.583 58.8333L120.333 70.5833L108.583 82.4167L117.417 91.25Z" fill="white"/>
</g>
<defs>
<clipPath id="clip0_86_14">
<rect width="200" height="200" fill="white"/>
</clipPath>
</defs>
</svg>
