<svg width="200" height="200" viewBox="0 0 200 200" fill="none" xmlns="http://www.w3.org/2000/svg">
<path d="M95.1666 126.417L143.75 175C147.917 179.033 153.502 181.268 159.301 181.221C165.1 181.173 170.648 178.849 174.748 174.748C178.849 170.648 181.173 165.1 181.221 159.301C181.268 153.502 179.033 147.917 175 143.75L126.025 94.775M95.1666 126.417L115.967 101.167C118.608 97.9667 122.133 95.95 126.033 94.7833C130.617 93.4167 135.725 93.2167 140.558 93.6167C147.074 94.1761 153.622 93.0222 159.553 90.2693C165.485 87.5164 170.593 83.2603 174.372 77.9234C178.151 72.5864 180.468 66.3541 181.094 59.845C181.72 53.3358 180.634 46.7761 177.942 40.8167L150.642 68.125C146.074 67.0688 141.895 64.7514 138.58 61.4365C135.265 58.1216 132.948 53.9425 131.892 49.375L159.192 22.075C153.232 19.383 146.672 18.2962 140.163 18.9224C133.654 19.5485 127.422 21.8659 122.085 25.6446C116.748 29.4232 112.492 34.5318 109.739 40.4633C106.986 46.3948 105.832 52.9431 106.392 59.4583C107.15 68.425 105.8 78.325 98.8583 84.0417L98.0083 84.75M95.1666 126.417L56.375 173.525C54.4949 175.817 52.1558 177.689 49.5083 179.023C46.8607 180.356 43.9634 181.12 41.0027 181.265C38.0421 181.411 35.0837 180.935 32.3181 179.869C29.5524 178.802 27.0407 177.168 24.9447 175.072C22.8487 172.976 21.2147 170.464 20.148 167.699C19.0813 164.933 18.6055 161.975 18.7513 159.014C18.897 156.053 19.661 153.156 20.9941 150.508C22.3272 147.861 24.1999 145.522 26.4916 143.642L83.4666 96.725L49.2416 62.5H37.5L18.75 31.25L31.25 18.75L62.5 37.5V49.2417L98 84.7417L83.4583 96.7167M153.125 153.125L131.25 131.25M40.5583 159.375H40.625V159.442H40.5583V159.375Z" stroke="white" stroke-width="12.5" stroke-linecap="round" stroke-linejoin="round"/>
</svg>
