<svg width="200" height="200" viewBox="0 0 200 200" fill="none" xmlns="http://www.w3.org/2000/svg">
<g clip-path="url(#clip0_86_2)">
<path d="M100 183.333C54.0833 183.333 16.6666 145.917 16.6666 100C16.6666 54.0834 54.0833 16.6667 100 16.6667C145.917 16.6667 183.333 50.3334 183.333 91.6667C183.333 119.25 160.917 141.667 133.333 141.667H118.583C116.25 141.667 114.417 143.5 114.417 145.833C114.417 146.833 114.833 147.75 115.5 148.583C118.917 152.5 120.833 157.417 120.833 162.5C120.833 168.025 118.638 173.324 114.731 177.231C110.824 181.138 105.525 183.333 100 183.333ZM100 33.3334C63.25 33.3334 33.3333 63.2501 33.3333 100C33.3333 136.75 63.25 166.667 100 166.667C102.333 166.667 104.167 164.833 104.167 162.5C104.141 161.419 103.727 160.384 103 159.583C99.5833 155.75 97.75 150.833 97.75 145.833C97.75 140.308 99.9449 135.009 103.852 131.102C107.759 127.195 113.058 125 118.583 125H133.333C151.75 125 166.667 110.083 166.667 91.6667C166.667 59.5001 136.75 33.3334 100 33.3334Z" fill="white"/>
<path d="M54.1666 108.333C61.0702 108.333 66.6666 102.737 66.6666 95.8333C66.6666 88.9297 61.0702 83.3333 54.1666 83.3333C47.2631 83.3333 41.6666 88.9297 41.6666 95.8333C41.6666 102.737 47.2631 108.333 54.1666 108.333Z" fill="white"/>
<path d="M79.1666 75C86.0702 75 91.6666 69.4036 91.6666 62.5C91.6666 55.5964 86.0702 50 79.1666 50C72.2631 50 66.6666 55.5964 66.6666 62.5C66.6666 69.4036 72.2631 75 79.1666 75Z" fill="white"/>
<path d="M120.833 75C127.737 75 133.333 69.4036 133.333 62.5C133.333 55.5964 127.737 50 120.833 50C113.93 50 108.333 55.5964 108.333 62.5C108.333 69.4036 113.93 75 120.833 75Z" fill="white"/>
<path d="M145.833 108.333C152.737 108.333 158.333 102.737 158.333 95.8333C158.333 88.9297 152.737 83.3333 145.833 83.3333C138.93 83.3333 133.333 88.9297 133.333 95.8333C133.333 102.737 138.93 108.333 145.833 108.333Z" fill="white"/>
</g>
<defs>
<clipPath id="clip0_86_2">
<rect width="200" height="200" fill="white"/>
</clipPath>
</defs>
</svg>
