<svg width="200" height="200" viewBox="0 0 200 200" fill="none" xmlns="http://www.w3.org/2000/svg">
<g clip-path="url(#clip0_83_6)">
<path d="M159.5 107.833C159.833 105.333 160 102.75 160 100C160 97.3334 159.833 94.6667 159.417 92.1667L176.333 79C177.062 78.3992 177.56 77.5642 177.743 76.6372C177.925 75.7103 177.78 74.7489 177.333 73.9167L161.333 46.25C160.862 45.4131 160.11 44.7698 159.21 44.4343C158.31 44.0987 157.321 44.0925 156.417 44.4167L136.5 52.4167C132.333 49.25 127.917 46.5834 123 44.5834L120 23.4167C119.852 22.4628 119.368 21.5934 118.634 20.9665C117.9 20.3396 116.965 19.9967 116 20H83.9999C81.9999 20 80.4166 21.4167 80.0833 23.4167L77.0833 44.5834C72.1666 46.5834 67.6666 49.3334 63.5833 52.4167L43.6666 44.4167C41.8333 43.75 39.7499 44.4167 38.7499 46.25L22.8333 73.9167C21.8333 75.6667 22.1666 77.8334 23.8333 79L40.7499 92.1667C40.3333 94.6667 39.9999 97.4167 39.9999 100C39.9999 102.583 40.1666 105.333 40.5833 107.833L23.6666 121C22.9376 121.601 22.4396 122.436 22.2572 123.363C22.0749 124.29 22.2196 125.251 22.6666 126.083L38.6666 153.75C39.6666 155.583 41.7499 156.167 43.5833 155.583L63.4999 147.583C67.6666 150.75 72.0833 153.417 76.9999 155.417L79.9999 176.583C80.4166 178.583 81.9999 180 83.9999 180H116C118 180 119.667 178.583 119.917 176.583L122.917 155.417C127.833 153.417 132.333 150.75 136.417 147.583L156.333 155.583C158.167 156.25 160.25 155.583 161.25 153.75L177.25 126.083C178.25 124.25 177.833 122.167 176.25 121L159.5 107.833ZM99.9999 130C83.4999 130 69.9999 116.5 69.9999 100C69.9999 83.5 83.4999 70 99.9999 70C116.5 70 130 83.5 130 100C130 116.5 116.5 130 99.9999 130Z" fill="white"/>
</g>
<defs>
<clipPath id="clip0_83_6">
<rect width="200" height="200" fill="white"/>
</clipPath>
</defs>
</svg>
