<svg width="200" height="200" viewBox="0 0 200 200" fill="none" xmlns="http://www.w3.org/2000/svg">
<g clip-path="url(#clip0_97_26)">
<path d="M62.5 46.6667L83.3334 58.3334L71.6667 37.5001L83.3334 16.6667L62.5 28.3334L41.6667 16.6667L53.3334 37.5001L41.6667 58.3334L62.5 46.6667ZM162.5 128.333L141.667 116.667L153.333 137.5L141.667 158.333L162.5 146.667L183.333 158.333L171.667 137.5L183.333 116.667L162.5 128.333ZM183.333 16.6667L162.5 28.3334L141.667 16.6667L153.333 37.5001L141.667 58.3334L162.5 46.6667L183.333 58.3334L171.667 37.5001L183.333 16.6667ZM119.75 60.7501C118.979 59.9775 118.063 59.3647 117.055 58.9465C116.047 58.5283 114.966 58.313 113.875 58.313C112.784 58.313 111.703 58.5283 110.695 58.9465C109.687 59.3647 108.771 59.9775 108 60.7501L10.75 158C9.97749 158.771 9.3646 159.687 8.94642 160.695C8.52824 161.703 8.31299 162.784 8.31299 163.875C8.31299 164.966 8.52824 166.047 8.94642 167.055C9.3646 168.063 9.97749 168.979 10.75 169.75L30.25 189.25C33.5 192.5 38.75 192.5 42 189.25L139.167 92.0834C139.939 91.3125 140.552 90.3967 140.97 89.3886C141.388 88.3805 141.604 87.2998 141.604 86.2084C141.604 85.117 141.388 84.0363 140.97 83.0282C140.552 82.0201 139.939 81.1044 139.167 80.3334L119.75 60.7501ZM111.167 106.5L93.5 88.8334L113.833 68.5001L131.5 86.1667L111.167 106.5Z" fill="white"/>
</g>
<defs>
<clipPath id="clip0_97_26">
<rect width="200" height="200" fill="white"/>
</clipPath>
</defs>
</svg>
